HIERARCHY
ROOT hip
{
	OFFSET 0.000000 0.000000 0.000000 
	CHANNELS 6 Xposition Yposition Zposition Xrotation Zrotation Yrotation
	JOINT abdomen
	{
		OFFSET 0.000000 3.402643 0.000000 
		CHANNELS 3 Xrotation Zrotation Yrotation
		JOINT chest
		{
			OFFSET 0.000000 8.438565 -0.680529 
			CHANNELS 3 Xrotation Zrotation Yrotation
			JOINT neck
			{
				OFFSET 0.000000 10.207942 -0.272212 
				CHANNELS 3 Xrotation Zrotation Yrotation
				JOINT head
				{
					OFFSET 0.000000 3.130431 0.000000 
					CHANNELS 3 Xrotation Zrotation Yrotation
					End Site
					{
						OFFSET 0.000000 3.130435 0.000000 
					}
				}
			}
			JOINT lCollar
			{
				OFFSET 3.470700 6.669187 -0.816635 
				CHANNELS 3 Yrotation Zrotation Xrotation
				JOINT lShldr
				{
					OFFSET 3.198488 0.000000 0.000000 
					CHANNELS 3 Zrotation Yrotation Xrotation
					JOINT lForeArm
					{
						OFFSET 10.139888 0.000000 0.000000 
						CHANNELS 3 Yrotation Zrotation Xrotation
						JOINT lHand
						{
							OFFSET 8.370511 0.000000 0.000000 
							CHANNELS 3 Zrotation Yrotation Xrotation
							End Site
							{
								OFFSET 4.083176 0.000000 0.000000 
							}
						}
					}
				}
			}
			JOINT rCollar
			{
				OFFSET -3.470700 6.669187 -0.816635 
				CHANNELS 3 Yrotation Zrotation Xrotation
				JOINT rShldr
				{
					OFFSET -3.198488 0.000000 0.000000 
					CHANNELS 3 Zrotation Yrotation Xrotation
					JOINT rForeArm
					{
						OFFSET -10.139888 0.000000 0.000000 
						CHANNELS 3 Yrotation Zrotation Xrotation
						JOINT rHand
						{
							OFFSET -8.370511 0.000000 0.000000 
							CHANNELS 3 Zrotation Yrotation Xrotation
							End Site
							{
								OFFSET -4.083176 0.000000 0.000000 
							}
						}
					}
				}
			}
		}
	}
	JOINT lThigh
	{
		OFFSET 5.308129 -1.633274 1.361059 
		CHANNELS 3 Xrotation Zrotation Yrotation
		JOINT lShin
		{
			OFFSET -2.041588 -20.007561 0.000000 
			CHANNELS 3 Xrotation Zrotation Yrotation
			JOINT lFoot
			{
				OFFSET 0.000000 -19.190928 -1.224953 
				CHANNELS 3 Xrotation Yrotation Zrotation
				End Site
				{
					OFFSET 0.000000 -2.449906 4.627600 
				}
			}
		}
	}
	JOINT rThigh
	{
		OFFSET -5.308129 -1.633274 1.361059 
		CHANNELS 3 Xrotation Zrotation Yrotation
		JOINT rShin
		{
			OFFSET 2.041588 -20.007561 0.000000 
			CHANNELS 3 Xrotation Zrotation Yrotation
			JOINT rFoot
			{
				OFFSET 0.000000 -19.190928 -1.224953 
				CHANNELS 3 Xrotation Yrotation Zrotation
				End Site
				{
					OFFSET 0.000000 -2.449906 4.627600 
				}
			}
		}
	}
}
MOTION
Frames: 16
Frame Time: 0.011111
-40.061504 53.183620 -1.892127 -3.550659 -7.660589 90.811691 13.715753 5.935199 2.817028 -16.890791 -1.378307 0.168080 -12.387864 -9.978853 -11.888020 19.085455 9.892284 -24.954662 -13.725516 -13.189672 -3.762996 -46.718632 -27.038393 67.797508 -90.791473 6.375645 35.643188 8.524705 12.647240 -24.583387 8.354301 9.292459 -1.514610 68.679634 9.561208 45.567406 89.834625 -5.680044 35.033508 -8.534408 -12.637552 49.906109 -1.533422 11.481305 3.077420 15.210720 -5.918976 -2.837703 -29.057554 -7.137443 -5.738869 -15.196879 -7.389729 6.266133 9.548604 5.972628 2.038809 -16.008253 -15.603954 -0.778743 
-40.404308 53.167980 -2.118109 -2.571210 -7.570932 90.322960 14.201391 4.776189 2.698120 -16.792500 -1.626026 0.208292 -11.951076 -9.622485 -11.839026 17.552206 10.344359 -24.751657 -13.725516 -13.189672 -3.762996 -46.077179 -27.093622 67.519234 -90.903694 6.453337 35.704956 8.524705 12.647240 -24.475965 8.354301 9.292459 -1.514610 67.479355 10.329877 47.119556 89.901970 -5.731782 35.082760 -8.534408 -12.637552 51.048687 -1.504255 10.066101 6.514660 13.901293 -5.927876 -2.661955 -27.302643 -5.128780 -4.630380 -16.219271 -8.720114 5.720415 10.467551 5.973360 2.170414 -16.701792 -14.864060 -0.852292 
-40.726368 53.137653 -2.314408 -1.871617 -7.336996 89.813309 14.804179 3.868488 2.679102 -16.645273 -1.875417 0.265552 -11.573604 -9.354152 -11.799166 16.081087 10.789260 -24.605457 -13.725516 -13.189672 -3.762996 -45.461872 -27.195040 67.188301 -90.948502 6.482331 35.736282 8.524705 12.647240 -24.388073 8.354301 9.292459 -1.514610 66.338173 11.108635 48.592838 90.002411 -5.808491 35.144096 -8.534408 -12.637552 52.171738 -1.123312 9.158482 7.396653 13.494426 -5.935114 -2.606091 -26.960703 -5.735026 -4.973674 -17.095327 -9.656314 5.357733 11.504036 5.964357 2.322660 -16.923880 -14.066828 -0.742787 
-41.023529 53.108612 -2.499535 -1.294188 -7.007846 89.473679 15.401109 3.153389 2.623655 -16.340967 -2.289417 0.274419 -11.247052 -9.271258 -11.586395 14.965777 11.712316 -24.110287 -13.725516 -13.189672 -3.762996 -44.749805 -27.409056 66.821991 -90.972977 6.501052 35.746284 8.524705 12.647240 -24.290415 8.354301 9.292459 -1.514610 63.864243 12.760665 51.344685 90.254539 -5.999053 35.306290 -8.534408 -12.637552 54.730331 -0.557105 8.341730 7.894500 12.836499 -5.947066 -2.518981 -26.605736 -6.064685 -5.135404 -17.670139 -10.475774 4.904556 12.348935 5.952364 2.446116 -17.139328 -13.396896 -0.656707 
-41.291008 53.078926 -2.647317 -0.737346 -6.764416 88.966507 15.715217 2.309423 2.641580 -15.822610 -2.396328 0.333326 -9.808917 -8.284907 -11.365263 11.277551 10.692551 -23.674641 -13.725516 -13.189672 -3.762996 -44.273331 -27.688623 66.231316 -90.974091 6.500886 35.755993 8.524705 12.647240 -24.241590 8.354301 9.292459 -1.514610 64.328529 13.015774 51.104343 90.196205 -5.954897 35.275562 -8.534408 -12.637552 54.603374 0.038278 7.560782 8.297964 11.978086 -5.956707 -2.383769 -26.292240 -6.166919 -5.201876 -18.265371 -11.129880 4.639192 13.078802 5.934306 2.530104 -18.039417 -12.966423 -0.791129 
-41.545715 53.063927 -2.789993 -0.126447 -6.456556 88.651779 16.242382 1.447605 2.381756 -15.950534 -2.181424 0.355762 -7.262777 -7.407882 -11.063452 6.194324 9.944312 -23.060259 -13.725516 -13.189672 -3.762996 -44.244678 -27.473616 65.588112 -90.957619 6.487569 35.736694 8.524705 12.647240 -24.388073 8.354301 9.292459 -1.514610 64.384422 13.093042 50.987675 90.077591 -5.866307 35.193825 -8.534408 -12.637552 54.701031 0.692307 6.677120 8.409430 11.178038 -5.976668 -2.283817 -25.957888 -6.204650 -5.199932 -18.659447 -11.883395 4.188757 13.843360 5.913286 2.664879 -19.646399 -12.658551 -1.169330 
-41.797234 53.045731 -2.932987 0.452127 -6.165255 88.312004 16.724030 0.664429 2.137127 -16.078077 -2.043567 0.361458 -8.478194 -6.987858 -11.575665 7.627601 7.867913 -24.140505 -13.725516 -13.189672 -3.762996 -44.208233 -27.177349 65.212051 -90.921974 6.464514 35.715515 8.524705 12.647240 -24.505260 8.354301 9.292459 -1.514610 64.438255 13.120643 50.934704 89.951172 -5.770890 35.113922 -8.534408 -12.637552 54.759624 1.286374 5.763809 8.273104 10.400365 -5.992794 -2.165611 -25.698215 -5.877090 -5.028682 -19.147112 -12.634889 3.600726 14.692476 5.903269 2.759963 -20.748169 -12.374529 -1.394681 
-42.005341 52.999771 -3.051725 1.159344 -5.625839 88.143448 17.376488 -0.293258 1.702406 -16.147095 -1.855149 0.339114 -8.728053 -6.784496 -11.743303 8.004510 7.154687 -24.456741 -13.725516 -13.189672 -3.762996 -44.144176 -26.806160 65.002884 -90.879349 6.434483 35.694962 8.524705 12.647240 -24.768934 8.354301 9.292459 -1.514610 64.477982 12.988195 50.918198 89.859505 -5.699810 35.052959 -8.534408 -12.637552 54.427593 2.184129 4.652108 7.905557 9.599797 -5.982512 -2.054574 -25.439165 -5.491446 -4.843905 -19.220621 -13.618162 2.723283 15.421078 5.885854 2.882555 -20.963646 -12.215598 -1.425434 
-42.231327 53.001686 -3.150991 0.892394 -5.686781 87.890381 17.376545 -0.069916 1.775759 -16.137062 -1.933103 0.332819 -8.647836 -6.852299 -11.601239 8.172515 7.322111 -24.152832 -13.725516 -13.189672 -3.762996 -44.127296 -26.304239 64.720764 -90.789398 6.376547 35.632439 8.524705 12.647240 -24.690807 8.354301 9.292459 -1.514610 64.367317 12.952307 50.977501 89.759613 -5.621593 34.983032 -8.534408 -12.637552 54.066265 2.089364 4.804128 7.517156 9.072837 -5.992224 -1.978324 -25.202406 -4.863619 -4.538434 -19.757950 -13.315656 1.969690 16.489613 5.864334 3.005124 -20.978027 -12.120730 -1.392606 
-42.458904 53.009987 -3.244512 0.796451 -5.716904 87.756004 17.436588 -0.002347 1.675111 -16.185770 -1.969554 0.302297 -8.585417 -6.888696 -11.482153 8.308178 7.405709 -23.918215 -13.725516 -13.189672 -3.762996 -44.173531 -25.754374 64.384178 -90.806526 6.388684 35.643017 8.524705 12.647240 -24.602917 8.354301 9.292459 -1.514610 64.277069 12.909534 50.955132 89.678856 -5.555082 34.933228 -8.534408 -12.637552 53.822124 1.883694 4.763923 7.075993 8.827116 -5.991388 -1.945477 -25.002537 -4.342458 -4.286108 -20.281652 -13.260676 1.084969 17.776726 5.834608 3.205098 -20.917179 -11.766476 -1.267882 
-42.664776 53.026264 -3.324947 0.669898 -5.728607 87.665352 17.466347 0.047858 1.649897 -16.205175 -2.007667 0.290288 -8.529979 -6.897326 -11.426845 8.464233 7.409614 -23.789785 -13.725516 -13.189672 -3.762996 -44.256294 -25.470629 63.937771 -90.939400 6.477085 35.735867 8.524705 12.647240 -25.403698 8.354301 9.292459 -1.514610 64.307259 12.775697 50.726566 89.638275 -5.521545 34.902554 -8.534408 -12.637552 53.626812 1.600887 4.804005 6.870034 8.824612 -5.995491 -1.936028 -24.931900 -4.038656 -4.151273 -20.665785 -13.120200 0.489961 19.097147 5.799356 3.367618 -20.911083 -11.257239 -1.114284 
-42.867134 53.059139 -3.400593 0.397310 -5.890055 87.569481 17.349018 0.314838 1.751656 -16.204622 -2.164208 0.288256 -8.494671 -6.958222 -11.362092 8.671801 7.509408 -23.646074 -13.725516 -13.189672 -3.762996 -44.267529 -25.303226 63.783298 -90.902702 6.454123 35.704994 8.524705 12.647240 -25.100965 8.354301 9.292459 -1.514610 64.354279 12.594943 50.485310 89.630241 -5.515198 34.903210 -8.534408 -12.637552 53.451031 0.984021 5.079932 6.847942 9.098888 -6.006091 -1.980857 -24.979160 -3.904493 -4.065366 -21.209053 -12.733225 0.238929 20.575855 5.738342 3.597938 -21.177162 -10.726871 -1.043451 
-43.077801 53.117229 -3.470176 0.116898 -6.042376 87.490364 17.271618 0.643888 1.852449 -16.213654 -2.358919 0.273948 -8.502453 -7.215722 -11.233929 8.895280 7.942210 -23.400562 -13.725516 -13.189672 -3.762996 -44.272182 -25.124643 63.663700 -90.887421 6.440561 35.694317 8.524705 12.647240 -24.417370 8.354301 9.292459 -1.514610 64.383179 12.342435 50.250290 89.677902 -5.555028 34.923508 -8.534408 -12.637552 53.304546 0.321430 5.406988 6.984660 9.513014 -5.992958 -2.037558 -24.973356 -3.923954 -4.100962 -21.716366 -12.303394 0.115761 22.234537 5.688841 3.807006 -21.510946 -10.126367 -0.944815 
-43.250797 53.180431 -3.511351 -0.017001 -5.840192 87.637772 17.527918 0.756312 1.731508 -16.184122 -2.404793 0.230098 -8.477647 -7.358817 -11.174864 8.956816 8.198072 -23.284595 -13.725516 -13.189672 -3.762996 -44.345554 -24.998709 63.234703 -90.834785 6.405220 35.663673 8.524705 12.647240 -24.798229 8.354301 9.292459 -1.514610 64.372597 12.094058 49.929993 89.767769 -5.627831 34.983334 -8.534408 -12.637552 53.363136 0.214166 5.595471 7.304923 9.754751 -5.991844 -2.068305 -24.780157 -4.301515 -4.268685 -21.624838 -12.106334 -0.088198 23.848919 5.613574 4.016600 -21.850681 -9.634285 -0.866024 
-43.402096 53.218414 -3.548695 -0.088022 -5.587670 87.734856 17.801983 0.783293 1.673301 -16.086178 -2.453109 0.212487 -8.477141 -7.297996 -11.164121 8.801821 8.104334 -23.269436 -13.725516 -13.189672 -3.762996 -44.431786 -24.934986 62.943493 -90.789398 6.376547 35.632439 8.524705 12.647240 -25.013073 8.354301 9.292459 -1.514610 64.372742 11.965727 49.554592 89.843819 -5.686244 35.043537 -8.534408 -12.637552 53.255718 0.282708 5.670718 7.653306 9.849551 -5.985884 -2.086530 -24.583168 -4.657769 -4.443679 -21.500259 -11.980641 -0.333849 25.624565 5.537020 4.257009 -22.194798 -9.025663 -0.744423 
-43.556263 53.240116 -3.586997 -0.189008 -5.453107 87.632462 17.956562 0.824727 1.833410 -16.017521 -2.514840 0.243902 -8.485086 -7.192211 -11.170189 8.649751 7.806318 -23.298944 -13.725516 -13.189672 -3.762996 -44.554653 -24.908024 62.708950 -90.791359 6.375012 35.633438 8.524705 12.647240 -25.100965 8.354301 9.292459 -1.514610 64.323975 11.840155 49.172878 89.902840 -5.731164 35.083702 -8.534408 -12.637552 52.826031 0.243227 5.791513 7.987191 9.918036 -5.985818 -2.092703 -24.468155 -4.807223 -4.521975 -21.557405 -11.765134 -0.486221 27.502106 5.462446 4.487399 -22.598339 -8.286638 -0.599740 
